# xmcd
#
# Track frame offsets:
#	150
#	54298
#	76853
#	107383
#	131973
#	151525
#	175448
#	197813
#	214558
#	235605
#
# Disc length: 3458 seconds
#
# Revision: 1
# Processed by: cddbd v1.4PL0 Copyright (c) Steve Scherf et al.
# Submitted via: audiograbber 1.82.01
#
DISCID=740d800a
DTITLE=Tony Kiwan - Yalla Nghani Dal3ouna
DYEAR=1900
DGENRE=
TTITLE0=Koktail Min Loubnan
TTITLE1=Ya Habibi Eshta2na
TTITLE2=Kol El Hob
TTITLE3=Abadan Ya Habibi
TTITLE4=Yalla Nghani Dal3ouna
TTITLE5=Ya Msafer 3a Blad El Ghorbeh
TTITLE6=Bi Hay El Madineh
TTITLE7=Bi Sawt 3ali
TTITLE8=Halef
TTITLE9=Halil Ya Loubnan
EXTD=
EXTT0=
EXTT1=
EXTT2=
EXTT3=
EXTT4=
EXTT5=
EXTT6=
EXTT7=
EXTT8=
EXTT9=
PLAYORDER=
